<svg id="visual" viewBox="0 0 900 600" width="900" height="600" xmlns="http://www.w3.org/2000/svg" xmlns:xlink="http://www.w3.org/1999/xlink" version="1.1"><rect x="0" y="0" width="900" height="600" fill="#001122"></rect><path d="M0 431L18.8 449C37.7 467 75.3 503 112.8 498.2C150.3 493.3 187.7 447.7 225.2 434.2C262.7 420.7 300.3 439.3 337.8 449.5C375.3 459.7 412.7 461.3 450.2 454.2C487.7 447 525.3 431 562.8 414.2C600.3 397.3 637.7 379.7 675.2 373.2C712.7 366.7 750.3 371.3 787.8 372.2C825.3 373 862.7 370 881.3 368.5L900 367L900 601L881.3 601C862.7 601 825.3 601 787.8 601C750.3 601 712.7 601 675.2 601C637.7 601 600.3 601 562.8 601C525.3 601 487.7 601 450.2 601C412.7 601 375.3 601 337.8 601C300.3 601 262.7 601 225.2 601C187.7 601 150.3 601 112.8 601C75.3 601 37.7 601 18.8 601L0 601Z" fill="#009473" stroke-linecap="round" stroke-linejoin="miter"></path></svg>